mtllib ./Sphere2_0_0.mtl
g Sphere2
v 1.030072 0.4935478 1.032959
v 1.015597 0.511366 1.050325
v 1.034674 0.5205511 1.029541
v 1.02426 0.4928171 1.043982
v 0.9917198 0.4893707 1.051431
v 1.000606 0.4751368 1.043248
v 0.9924822 0.4768133 1.04503
v 0.9836963 0.5023274 1.052036
v 1.010276 0.5189767 1.050659
v 1.00183 0.5312111 1.045928
v 0.9723642 0.5153608 1.043676
v 0.9630815 0.5083599 1.037265
v 1.008899 0.5275815 1.037117
v 1.021298 0.5229089 1.035672
v 1.018116 0.5335513 1.029737
v 1.03988 0.5219641 1.018762
v 1.029905 0.5282378 1.015264
v 1.038157 0.5032102 1.02412
v 1.043572 0.490449 1.007097
v 1.044109 0.4944737 0.9955271
v 1.037094 0.532105 0.995249
v 1.033496 0.5299718 1.008631
v 1.030209 0.5395162 1.004857
v 1.014666 0.5392471 0.9741118
v 1.014638 0.5450678 0.9918211
v 1.020348 0.5345368 1.02069
v 1.044763 0.5133021 0.9888555
v 1.033982 0.5205892 0.9749769
v 1.016887 0.5334668 0.9679317
v 1.024688 0.5137119 0.9610175
v 1.044188 0.4963319 0.9854783
v 1.005554 0.5040227 0.9526725
v 0.9973577 0.5314084 0.9605557
v 1.00425 0.5333349 0.9756883
v 0.9930449 0.5323005 0.9664584
v 0.9976928 0.5391231 0.9849044
v 0.9785414 0.5447544 0.9855665
v 0.9582492 0.5140772 0.9740359
v 0.9770347 0.5489458 1.005456
v 0.9906932 0.5490687 0.9984191
v 0.9542162 0.5276128 1.005194
v 0.9542581 0.5205445 0.9878266
v 0.9554195 0.515281 1.014651
v 0.9525295 0.5145723 0.9845898
v 0.9543952 0.4938876 0.9866153
v 0.976651 0.4901204 0.9610261
v 0.9619365 0.4812153 0.9786257
v 0.9746035 0.5209798 0.9615214
v 0.9842142 0.4934157 0.9566374
v 0.9496039 0.5084245 1.008707
v 0.9492507 0.5108809 0.9983492
v 0.9590351 0.4774064 0.9885085
v 0.9535438 0.4882565 1.008023
v 0.9624805 0.4768216 1.023192
v 0.9558955 0.5097396 1.027264
v 0.9670627 0.5153201 1.033248
v 0.9543299 0.5246793 1.015119
v 0.9627583 0.5222902 1.032229
v 0.9774061 0.548284 1.013111
v 0.9891948 0.5401851 1.035963
v 0.9975393 0.5400516 1.033691
v 0.974007 0.4767644 1.03534
v 0.9789965 0.4979131 1.045733
v 1.006277 0.543123 1.028782
v 1.002872 0.5488552 1.004659
v 1.019055 0.5445215 1.017439
v 1.001227 0.5485727 0.9884526
v 0.9907388 0.4602515 1.0208
v 0.962911 0.4730881 1.004455
v 0.9741243 0.4735011 1.024498
v 0.9854884 0.4734627 1.034889
v 0.9933522 0.4711959 1.031147
v 0.9739738 0.4629791 0.9925995
v 0.9988806 0.4556596 1.010544
v 0.9624805 0.4768216 1.023192
v 0.9590351 0.4774064 0.9885085
v 0.9830388 0.4604003 0.9845082
v 1.006533 0.456928 0.9925934
v 0.9994838 0.4672569 0.9687256
v 1.010887 0.4536809 0.9984206
v 1.008271 0.4546905 1.013397
v 0.9982927 0.4636734 1.023589
v 1.004953 0.4628761 1.029233
v 0.9924822 0.4768133 1.04503
v 1.010181 0.4566589 0.9854591
v 1.000606 0.4751368 1.043248
v 1.028802 0.4863169 1.036748
v 1.017754 0.4651354 1.021549
v 1.02426 0.4928171 1.043982
v 1.034399 0.4837466 1.027544
v 0.9938716 0.4713355 0.9703017
v 0.9762074 0.467986 0.9765245
v 0.976651 0.4901204 0.9610261
v 0.9619365 0.4812153 0.9786257
v 0.9949747 0.4742319 0.9637976
v 1.001573 0.4951244 0.9573909
v 1.021943 0.4922711 0.9595794
v 0.9842142 0.4934157 0.9566374
v 1.025944 0.4852535 0.9647792
v 1.021857 0.4692225 0.977734
v 1.044188 0.4963319 0.9854783
v 1.03989 0.4825327 0.986926
v 1.03819 0.4872898 0.9939932
v 1.024688 0.5137119 0.9610175
v 1.036428 0.4782753 0.9847571
v 1.022195 0.4616447 1.001416
v 1.038298 0.4768078 1.001487
v 1.036628 0.4777938 1.014004
v 1.038606 0.4845669 1.006691
v 1.044109 0.4944737 0.9955271
v 1.043572 0.490449 1.007097
v 1.038157 0.5032102 1.02412
v 1.030072 0.4935478 1.032959
v 1.005554 0.5040227 0.9526725
v 1.013421 0.498087 0.9571739
v 0.9966928 0.4999962 0.9527448
v 0.9966928 0.4999962 0.9527448
v 0.9874692 0.5268907 0.9591103
v 0.9654567 0.4748937 0.9948871
v 0.9739481 0.4691987 0.9876326
v 0.9682487 0.4702272 0.982016
v 0.974007 0.4767644 1.03534

vn 0.8125119 0.04193878 0.581434
vn 0.4457724 0.07584101 0.8919278
vn 0.730189 0.3726494 0.5726749
vn 0.6297376 -0.1454574 0.7630681
vn -0.1678464 -0.315353 0.934013
vn 0.1905249 -0.5982416 0.7783362
vn -0.2074632 -0.6289394 0.7492625
vn -0.3466297 -0.05194372 0.9365629
vn 0.2793519 0.4057894 0.8702285
vn 0.2463626 0.6424664 0.7256325
vn -0.5358724 0.2981513 0.789903
vn -0.7404734 0.1393856 0.6574731
vn 0.4827752 0.6629352 0.5722283
vn 0.3743621 0.6972056 0.6113572
vn 0.5047224 0.6033189 0.6174639
vn 0.8574498 0.4395268 0.2675746
vn 0.5516132 0.7603767 0.3428563
vn 0.8773352 -0.03511772 0.4785914
vn 0.940487 -0.3295995 0.08275509
vn 0.9616464 -0.2733863 -0.022275
vn 0.8045086 0.5816886 -0.1200185
vn 0.6389424 0.6580269 0.3984385
vn 0.6742665 0.7212967 0.1584172
vn 0.1920384 0.8561364 -0.4797416
vn 0.3786125 0.9085394 -0.1766608
vn 0.7992568 0.4757446 0.3672269
vn 0.9756045 0.2137592 -0.05002818
vn 0.7534238 0.3731086 -0.5414264
vn 0.4171825 0.6039854 -0.6790881
vn 0.5443605 0.2163172 -0.8104806
vn 0.9366794 -0.1666495 -0.3079931
vn 0.1756712 -0.05277425 -0.9830333
vn -0.0198785 0.7314597 -0.681595
vn -0.2539039 0.9027667 -0.3471964
vn -0.1647243 0.9089465 -0.3829914
vn -0.1597903 0.7835175 -0.6004729
vn -0.2438269 0.878626 -0.4105666
vn -0.7452918 0.225964 -0.6272802
vn -0.3395444 0.9394468 -0.04636371
vn -0.199902 0.9199829 -0.3371512
vn -0.9081115 0.4184812 -0.01439255
vn -0.8218379 0.5080229 -0.2578666
vn -0.9186057 0.2798067 0.2790551
vn -0.9176704 0.1751295 -0.356666
vn -0.9199505 -0.2229432 -0.322471
vn -0.4683441 -0.3151937 -0.8254132
vn -0.7371506 -0.3697155 -0.5656143
vn -0.5392892 0.4984776 -0.6787397
vn -0.1839322 -0.4887664 -0.8528053
vn -0.9726574 0.1516016 0.1759389
vn -0.9805078 0.1961744 -0.01096086
vn -0.7869172 -0.5987212 -0.1493135
vn -0.9370006 -0.3309169 0.1119099
vn -0.6751288 -0.636869 0.3722888
vn -0.8414683 0.2776044 0.4635375
vn -0.8622983 0.1437097 0.4855815
vn -0.921717 0.2567228 0.2907427
vn -0.8137803 0.1489993 0.561748
vn -0.2449115 0.940584 0.2352031
vn -0.1876326 0.7854807 0.5897579
vn 0.1858159 0.8428948 0.5049762
vn -0.4759862 -0.6403963 0.6027685
vn -0.5725788 -0.3334211 0.7489885
vn 0.1914269 0.7983683 0.5709324
vn 0.1211794 0.9897625 0.07540625
vn 0.5253227 0.7800559 0.3399248
vn -0.1699437 0.8705484 -0.4618062
vn -0.2472235 -0.8473039 0.4700606
vn -0.7015845 -0.7093642 0.06768769
vn -0.3944702 -0.8620079 0.318333
vn -0.2084227 -0.8611534 0.4636541
vn -0.201031 -0.8275704 0.5241317
vn -0.6082547 -0.7660087 -0.2079836
vn -0.224106 -0.9700832 0.09335583
vn -0.6751288 -0.636869 0.3722888
vn -0.7869172 -0.5987212 -0.1493135
vn -0.3133927 -0.8874363 -0.3379971
vn -0.2906512 -0.9324538 -0.2145978
vn -0.06948287 -0.713728 -0.6969681
vn 0.1737133 -0.9774814 -0.1198084
vn 0.1982878 -0.9337748 0.297904
vn -0.1844283 -0.7858438 0.5902846
vn 0.01512342 -0.8327421 0.5534548
vn -0.2074632 -0.6289394 0.7492625
vn 0.1082638 -0.9278857 -0.3568016
vn 0.1905249 -0.5982416 0.7783362
vn 0.7066755 -0.3291741 0.626302
vn 0.5359496 -0.7255507 0.4316647
vn 0.6297376 -0.1454574 0.7630681
vn 0.7921148 -0.3766743 0.4802819
vn -0.4554861 -0.6258308 -0.6331416
vn -0.4033046 -0.7346059 -0.5456187
vn -0.4683441 -0.3151937 -0.8254132
vn -0.7371506 -0.3697155 -0.5656143
vn -0.2327034 -0.5830812 -0.7783737
vn 0.08087306 -0.4482778 -0.8902286
vn 0.4311573 -0.2099448 -0.8775116
vn -0.1839322 -0.4887664 -0.8528053
vn 0.5679666 -0.3902501 -0.7246508
vn 0.50587 -0.702986 -0.4999064
vn 0.9366794 -0.1666495 -0.3079931
vn 0.9226313 -0.3362182 -0.188968
vn 0.9778145 -0.2044316 0.04567789
vn 0.5443605 0.2163172 -0.8104806
vn 0.730056 -0.5825154 -0.3573434
vn 0.6253475 -0.7802917 0.009243369
vn 0.8804982 -0.4724787 0.03855768
vn 0.8510559 -0.460279 0.2526799
vn 0.9289643 -0.3651937 0.06048846
vn 0.9616464 -0.2733863 -0.022275
vn 0.940487 -0.3295995 0.08275509
vn 0.8773352 -0.03511772 0.4785914
vn 0.8125119 0.04193878 0.581434
vn 0.1756712 -0.05277425 -0.9830333
vn 0.2248949 -0.2103174 -0.9514143
vn -0.03337301 -0.2395384 -0.9703133
vn -0.03337301 -0.2395384 -0.9703133
vn -0.2996798 0.5870992 -0.7520018
vn -0.5226849 -0.8311849 -0.1895584
vn -0.6347896 -0.7433814 -0.2107759
vn -0.5445144 -0.8172089 -0.188875
vn -0.4759862 -0.6403963 0.6027685

vt 0.4959597 0.260513
vt 0.3741864 0.3066449
vt 0.4559192 0.4290215
vt 0.4281665 0.1857614
vt 0.249882 0.1935149
vt 0.2722816 0.03192425
vt 0.2080218 0.1029437
vt 0.2508236 0.2923167
vt 0.3550763 0.3408648
vt 0.3325381 0.399076
vt 0.2387807 0.3821566
vt 0.201368 0.3918228
vt 0.3627545 0.4150609
vt 0.4040013 0.4067918
vt 0.3869889 0.4590198
vt 0.4730752 0.4801538
vt 0.4344542 0.5084043
vt 0.5296925 0.3919632
vt 0.6125841 0.5123224
vt 0.5992519 0.6072043
vt 0.4420284 0.614748
vt 0.4410112 0.5439782
vt 0.4135065 0.569557
vt 0.3647829 0.704024
vt 0.367842 0.6221161
vt 0.3993289 0.4941255
vt 0.5143214 0.65836
vt 0.4564057 0.7396042
vt 0.3742356 0.7463061
vt 0.4302345 0.8636171
vt 0.5890307 0.699853
vt 0.3082207 0.9785067
vt 0.2971585 0.7692298
vt 0.3266054 0.7043629
vt 0.2855249 0.7361541
vt 0.3152244 0.6589841
vt 0.2723523 0.6285969
vt 0.1750164 0.6747165
vt 0.2803194 0.5626044
vt 0.3087648 0.591551
vt 0.2077194 0.5453766
vt 0.1854892 0.6094809
vt 0.1843739 0.4954776
vt 0.1679888 0.622762
vt 0.09023983 0.6206205
vt 0.1093916 0.8433099
vt 0.0336869 0.6892998
vt 0.2203151 0.7538596
vt 0.1546133 0.9078872
vt 0.1550641 0.5147173
vt 0.1581714 0.5601237
vt 0.01381068 0.5977988
vt 0.08378837 0.4812982
vt 0.0614126 0.3413689
vt 0.1827497 0.437569
vt 0.217419 0.41861
vt 0.2071259 0.50872
vt 0.2267188 0.4448885
vt 0.2821414 0.538687
vt 0.3058338 0.4546124
vt 0.326969 0.4589427
vt 0.1131469 0.2249781
vt 0.2202312 0.2876233
vt 0.348564 0.481089
vt 0.3386405 0.570558
vt 0.3804873 0.5232682
vt 0.3320474 0.6282123
vt 0.8376697 0.2145855
vt 0.9559087 0.2780542
vt 0.9090087 0.1634916
vt 0.8560008 0.1106176
vt 0.8261682 0.1388389
vt 0.9050542 0.3440539
vt 0.816225 0.2709579
vt 0.960195 0.164135
vt 0.9851876 0.3786378
vt 0.8762372 0.3820299
vt 0.8019609 0.3528812
vt 0.828353 0.464695
vt 0.786859 0.3296375
vt 0.7874181 0.2666866
vt 0.8115039 0.1966486
vt 0.7830835 0.1822152
vt 0.8136922 0.05044718
vt 0.7925091 0.3819728
vt 0.7750635 0.07233301
vt 0.6549119 0.1402848
vt 0.7414771 0.2308378
vt 0.6492814 0.0753907
vt 0.6495615 0.2052629
vt 0.8487991 0.4712312
vt 0.9052214 0.4258041
vt 0.9213606 0.5720879
vt 0.9774468 0.4512515
vt 0.8432083 0.5023522
vt 0.8220105 0.6226103
vt 0.7458669 0.5867053
vt 0.894453 0.6107819
vt 0.7358673 0.5382596
vt 0.7539651 0.4413334
vt 0.6251577 0.4910982
vt 0.6702773 0.4372043
vt 0.6439468 0.4102715
vt 0.6911658 0.6836256
vt 0.6920184 0.4358155
vt 0.74534 0.3296182
vt 0.673095 0.352987
vt 0.6657131 0.2859538
vt 0.6387698 0.3323989
vt 0.6048771 0.4248019
vt 0.6043824 0.3374645
vt 0.561952 0.2095776
vt 0.6182696 0.1456207
vt 0.7985254 0.6902874
vt 0.7694045 0.6326832
vt 0.8440903 0.6661769
vt 0.2361286 0.9595689
vt 0.2636743 0.7746323
vt 0.9561555 0.3377909
vt 0.9184019 0.3750716
vt 0.9353198 0.4064479
vt 0.9066631 0.09287234

usemtl hl_ball_paper_medium_d
usemap hl_ball_paper_medium_d
f 2/2/2 1/1/1 3/3/3
f 2/2/2 4/4/4 1/1/1
f 2/2/2 5/5/5 4/4/4
f 4/4/4 5/5/5 6/6/6
f 6/6/6 5/5/5 7/7/7
f 5/5/5 8/8/8 7/7/7
f 5/5/5 9/9/9 8/8/8
f 9/9/9 2/2/2 3/3/3
f 9/9/9 5/5/5 2/2/2
f 8/8/8 9/9/9 10/10/10
f 11/11/11 8/8/8 10/10/10
f 8/8/8 11/11/11 12/12/12
f 10/10/10 9/9/9 13/13/13
f 13/13/13 9/9/9 14/14/14
f 14/14/14 9/9/9 3/3/3
f 15/15/15 13/13/13 14/14/14
f 15/15/15 14/14/14 3/3/3
f 15/15/15 3/3/3 16/16/16
f 16/16/16 17/17/17 15/15/15
f 3/3/3 18/18/18 16/16/16
f 18/18/18 19/19/19 16/16/16
f 19/19/19 20/20/20 16/16/16
f 20/20/20 21/21/21 16/16/16
f 16/16/16 21/21/21 22/22/22
f 16/16/16 22/22/22 17/17/17
f 22/22/22 21/21/21 23/23/23
f 23/23/23 21/21/21 24/24/24
f 25/25/25 23/23/23 24/24/24
f 22/22/22 23/23/23 26/26/26
f 26/26/26 15/15/15 17/17/17
f 17/17/17 22/22/22 26/26/26
f 21/21/21 20/20/20 27/27/27
f 27/27/27 28/28/28 21/21/21
f 28/28/28 29/29/29 21/21/21
f 24/24/24 21/21/21 29/29/29
f 30/30/30 29/29/29 28/28/28
f 28/28/28 31/31/31 30/30/30
f 28/28/28 27/27/27 31/31/31
f 27/27/27 20/20/20 31/31/31
f 30/30/30 32/32/32 29/29/29
f 29/29/29 32/32/32 33/33/33
f 29/29/29 33/33/33 24/24/24
f 24/24/24 33/33/33 34/34/34
f 33/33/33 35/35/35 34/34/34
f 36/36/36 24/24/24 34/34/34
f 34/34/34 35/35/35 36/36/36
f 37/37/37 36/36/36 35/35/35
f 37/37/37 35/35/35 38/38/38
f 36/36/36 37/37/37 39/39/39
f 36/36/36 39/39/39 40/40/40
f 41/41/41 39/39/39 37/37/37
f 42/42/42 41/41/41 37/37/37
f 42/42/42 37/37/37 38/38/38
f 42/42/42 43/43/43 41/41/41
f 44/44/44 42/42/42 38/38/38
f 45/45/45 44/44/44 38/38/38
f 38/38/38 46/46/46 45/45/45
f 45/45/45 46/46/46 47/47/47
f 35/35/35 48/48/48 38/38/38
f 48/48/48 46/46/46 38/38/38
f 48/48/48 49/49/49 46/46/46
f 42/42/42 50/50/50 43/43/43
f 42/42/42 51/51/51 50/50/50
f 44/44/44 51/51/51 42/42/42
f 44/44/44 45/45/45 51/51/51
f 52/52/52 51/51/51 45/45/45
f 47/47/47 52/52/52 45/45/45
f 51/51/51 52/52/52 53/53/53
f 50/50/50 51/51/51 53/53/53
f 53/53/53 52/52/52 54/54/54
f 55/55/55 53/53/53 54/54/54
f 43/43/43 50/50/50 55/55/55
f 55/55/55 50/50/50 53/53/53
f 55/55/55 56/56/56 43/43/43
f 57/57/57 43/43/43 56/56/56
f 58/58/58 57/57/57 56/56/56
f 59/59/59 57/57/57 58/58/58
f 60/60/60 59/59/59 58/58/58
f 61/61/61 59/59/59 60/60/60
f 58/58/58 11/11/11 60/60/60
f 56/56/56 11/11/11 58/58/58
f 11/11/11 10/10/10 60/60/60
f 60/60/60 10/10/10 61/61/61
f 61/61/61 10/10/10 13/13/13
f 61/61/61 13/13/13 15/15/15
f 59/59/59 41/41/41 57/57/57
f 43/43/43 57/57/57 41/41/41
f 39/39/39 59/59/59 61/61/61
f 39/39/39 41/41/41 59/59/59
f 54/54/54 12/12/12 55/55/55
f 12/12/12 56/56/56 55/55/55
f 12/12/12 11/11/11 56/56/56
f 62/62/62 12/12/12 54/54/54
f 62/62/62 63/63/63 12/12/12
f 7/7/7 63/63/63 62/62/62
f 61/61/61 15/15/15 64/64/64
f 64/64/64 39/39/39 61/61/61
f 64/64/64 65/65/65 39/39/39
f 66/66/66 65/65/65 64/64/64
f 64/64/64 15/15/15 66/66/66
f 65/65/65 66/66/66 25/25/25
f 66/66/66 15/15/15 26/26/26
f 26/26/26 23/23/23 66/66/66
f 25/25/25 66/66/66 23/23/23
f 63/63/63 8/8/8 12/12/12
f 7/7/7 8/8/8 63/63/63
f 65/65/65 40/40/40 39/39/39
f 40/40/40 65/65/65 67/67/67
f 65/65/65 25/25/25 67/67/67
f 36/36/36 40/40/40 67/67/67
f 36/36/36 67/67/67 24/24/24
f 67/67/67 25/25/25 24/24/24
f 69/69/69 68/68/68 70/70/70
f 68/68/68 71/71/71 70/70/70
f 72/72/72 71/71/71 68/68/68
f 69/69/69 73/73/73 68/68/68
f 73/73/73 74/74/74 68/68/68
f 70/70/70 75/75/75 69/69/69
f 69/69/69 75/75/75 76/76/76
f 77/77/77 74/74/74 73/73/73
f 77/77/77 78/78/78 74/74/74
f 77/77/77 79/79/79 78/78/78
f 74/74/74 78/78/78 80/80/80
f 74/74/74 80/80/80 81/81/81
f 68/68/68 74/74/74 81/81/81
f 82/82/82 68/68/68 81/81/81
f 82/82/82 72/72/72 68/68/68
f 81/81/81 83/83/83 82/82/82
f 82/82/82 83/83/83 72/72/72
f 83/83/83 84/84/84 72/72/72
f 72/72/72 84/84/84 71/71/71
f 85/85/85 78/78/78 79/79/79
f 80/80/80 78/78/78 85/85/85
f 86/86/86 84/84/84 83/83/83
f 87/87/87 86/86/86 83/83/83
f 87/87/87 83/83/83 88/88/88
f 83/83/83 81/81/81 88/88/88
f 89/89/89 86/86/86 87/87/87
f 90/90/90 87/87/87 88/88/88
f 91/91/91 79/79/79 77/77/77
f 92/92/92 91/91/91 77/77/77
f 93/93/93 91/91/91 92/92/92
f 93/93/93 92/92/92 94/94/94
f 93/93/93 95/95/95 91/91/91
f 93/93/93 96/96/96 95/95/95
f 95/95/95 96/96/96 97/97/97
f 98/98/98 96/96/96 93/93/93
f 95/95/95 97/97/97 79/79/79
f 91/91/91 95/95/95 79/79/79
f 79/79/79 97/97/97 99/99/99
f 79/79/79 99/99/99 100/100/100
f 99/99/99 97/97/97 101/101/101
f 101/101/101 102/102/102 99/99/99
f 101/101/101 103/103/103 102/102/102
f 97/97/97 104/104/104 101/101/101
f 99/99/99 102/102/102 105/105/105
f 99/99/99 105/105/105 100/100/100
f 105/105/105 106/106/106 100/100/100
f 106/106/106 105/105/105 107/107/107
f 105/105/105 102/102/102 107/107/107
f 106/106/106 107/107/107 108/108/108
f 108/108/108 107/107/107 109/109/109
f 107/107/107 102/102/102 109/109/109
f 102/102/102 103/103/103 109/109/109
f 106/106/106 108/108/108 88/88/88
f 106/106/106 80/80/80 100/100/100
f 106/106/106 81/81/81 80/80/80
f 81/81/81 106/106/106 88/88/88
f 110/110/110 103/103/103 101/101/101
f 110/110/110 109/109/109 103/103/103
f 109/109/109 110/110/110 111/111/111
f 109/109/109 111/111/111 90/90/90
f 88/88/88 108/108/108 90/90/90
f 108/108/108 109/109/109 90/90/90
f 90/90/90 111/111/111 112/112/112
f 113/113/113 90/90/90 112/112/112
f 113/113/113 87/87/87 90/90/90
f 113/113/113 89/89/89 87/87/87
f 115/115/115 114/114/114 104/104/104
f 96/96/96 114/114/114 115/115/115
f 116/116/116 114/114/114 96/96/96
f 115/115/115 104/104/104 97/97/97
f 97/97/97 96/96/96 115/115/115
f 116/116/116 96/96/96 98/98/98
f 100/100/100 80/80/80 85/85/85
f 79/79/79 100/100/100 85/85/85
f 118/118/118 117/117/117 48/48/48
f 118/118/118 32/32/32 117/117/117
f 118/118/118 48/48/48 35/35/35
f 32/32/32 118/118/118 33/33/33
f 35/35/35 33/33/33 118/118/118
f 117/117/117 49/49/49 48/48/48
f 120/120/120 119/119/119 76/76/76
f 73/73/73 119/119/119 120/120/120
f 121/121/121 120/120/120 76/76/76
f 121/121/121 76/76/76 94/94/94
f 77/77/77 73/73/73 120/120/120
f 77/77/77 120/120/120 92/92/92
f 120/120/120 121/121/121 92/92/92
f 92/92/92 121/121/121 94/94/94
f 73/73/73 69/69/69 119/119/119
f 119/119/119 69/69/69 76/76/76
f 3/3/3 1/1/1 18/18/18
f 71/71/71 122/122/122 70/70/70
f 70/70/70 122/122/122 75/75/75
f 71/71/71 84/84/84 122/122/122
